<?xml version="1.0" encoding="UTF-8"?><svg xmlns="http://www.w3.org/2000/svg" width="965.0002" height="1024" viewBox="0 0 965.0002 1024"><g id="uuid-9f349e35-3d81-4950-acba-0a341a13a992"><path id="uuid-33107c33-784f-4f6b-a231-6467660906fb" d="m156,.15l730,159.85h79.0002v864H137.0002c-28.7188,0-52-23.2812-52-52v-217.7079L154.4662,2.4109l1.5338-2.2609Z" fill="#705a01"/><path id="uuid-914ba196-428a-42ab-a095-04d060c3fca1" d="m156,0h686.0002c28.6996,0,52,23.3004,52,52v668H156V0h0Z" fill="#dbae03"/><polygon id="uuid-9549a44e-b43e-48cd-91cf-347ed820e0bc" points="0 814 156 720 156 0 0 94 0 814" fill="#eacd5d"/></g><g id="uuid-d236ae93-a681-43ea-af7c-9117f13f8905"><path d="m358.4331,790.9248h37.8008v151.2021h-37.8008v-151.2021Z" fill="#fff"/><path d="m549.2461,790.9248v151.2021h-40.8242l-49.2495-104.3301v104.3301h-32.1846v-151.2021h44.2812l45.7925,93.7451v-93.7451h32.1846Z" fill="#fff"/><path d="m698.4814,851.1895v27.8643c0,38.8809-23.7607,63.0732-68.6895,63.0732h-49.4648v-151.2021h54.6494c42.3359,0,63.5049,24.1924,63.5049,60.2646Zm-37.8008-1.2959c0-21.1689-8.6406-31.7529-26.7842-31.7529h-15.7686v96.7695h12.5283c20.0879,0,30.0244-10.7998,30.0244-34.7764v-30.2402Z" fill="#fff"/></g><g id="uuid-e2bdd665-4742-4bfd-b348-550db62089b4"><path d="m574.8789,232.377v255.9302h51.2998v71.8198h-201.7803v-71.8198h50.7305v-255.9302h-50.7305v-71.25h201.7803v71.25h-51.2998Z" fill="#fff"/></g></svg>