<?xml version="1.0" encoding="UTF-8"?><svg xmlns="http://www.w3.org/2000/svg" width="965.0002" height="1024" viewBox="0 0 965.0002 1024"><g id="uuid-de644c57-c03c-4ef5-a68f-213376411352"><path id="uuid-ad4add1c-baf5-474c-b7da-db70f3bc70a1" d="m156,.15l730,159.85h79.0002v864H137.0002c-28.7188,0-52-23.2812-52-52v-217.7079L154.4662,2.4109l1.5338-2.2609Z" fill="#933c00"/><path id="uuid-da3007d1-d966-4e84-892d-d8da50a48a47" d="m156,0h686.0002c28.6996,0,52,23.3004,52,52v668H156V0h0Z" fill="#ff6b00"/><polygon id="uuid-59fc9858-c865-477d-9909-db949c4e98cd" points="0 814 156 720 156 0 0 94 0 814" fill="#ff9548"/></g><g id="uuid-c168392c-4390-4263-a8d2-94935b58cb13"><path d="m376.3618,818.1406v36.0723h49.6807v26.7852h-49.6807v61.1289h-37.8008v-151.2021h96.5537v27.2158h-58.7529Z" fill="#fff"/><path d="m577.0039,790.9248v151.2021h-33.0488l-1.9443-10.7998c-8.6396,7.7754-20.9521,14.2559-38.6641,14.2559-31.5376,0-49.4653-22.248-49.4653-52.4893v-102.1689h37.8013v103.8975c0,14.9043,6.4795,23.7607,22.248,23.7607,11.2324,0,19.2246-4.3203,25.2725-11.0166v-116.6416h37.8008Z" fill="#fff"/><path d="m598.9033,894.8223h35.6406c.8633,12.0957,4.752,23.3281,27.2158,23.3281,16.8486,0,22.0322-7.5596,22.0322-14.6885v-4.5361c0-10.7998-5.832-13.3916-26.3525-19.8721l-20.9521-6.9121c-22.6797-7.1279-32.6162-19.2236-32.6162-38.0166v-5.4004c0-19.8711,16.416-41.2559,58.1045-41.2559,33.9131,0,57.2412,15.3359,58.5371,46.4404h-34.7764c-1.0801-11.6641-7.3438-20.7363-23.5439-20.7363-16.417,0-20.7363,6.9121-20.7363,13.6084v3.0234c0,7.1289,4.9678,11.4492,22.8955,17.0645l20.5205,6.6963c25.0566,7.9922,36.7207,19.8721,36.7207,41.2568v6.4805c0,24.8398-21.6006,44.2803-59.833,44.2803-38.0166,0-60.9131-17.7119-62.8564-50.7607Z" fill="#fff"/></g><g id="uuid-dc60addc-7fe3-405a-8842-82a2b6970832"><path d="m517.0254,232.9429v95.1909h131.1025v70.6812h-131.1025v161.312h-99.751V161.1221h254.793v71.8208h-155.042Z" fill="#fff"/></g></svg>